<svg width="67" height="67" viewBox="0 0 67 67" fill="none" xmlns="http://www.w3.org/2000/svg">
<path d="M16.5557 25.5937C16.5557 23.1967 17.5079 20.8978 19.2029 19.2028C20.8979 17.5078 23.1968 16.5556 25.5938 16.5556H54.9619C56.1489 16.5556 57.3241 16.7893 58.4207 17.2435C59.5173 17.6978 60.5136 18.3635 61.3529 19.2028C62.1922 20.042 62.8579 21.0384 63.3121 22.135C63.7663 23.2315 64.0001 24.4068 64.0001 25.5937V54.9618C64.0001 56.1487 63.7663 57.324 63.3121 58.4206C62.8579 59.5171 62.1922 60.5135 61.3529 61.3528C60.5136 62.1921 59.5173 62.8578 58.4207 63.312C57.3241 63.7662 56.1489 64 54.9619 64H25.5938C24.4069 64 23.2316 63.7662 22.1351 63.312C21.0385 62.8578 20.0422 62.1921 19.2029 61.3528C18.3636 60.5135 17.6979 59.5171 17.2437 58.4206C16.7894 57.324 16.5557 56.1487 16.5557 54.9618V25.5937Z" stroke="#EFEFEF" stroke-width="6" stroke-linecap="round" stroke-linejoin="round"/>
<path d="M6.42956 49.5532C5.39033 48.9607 4.52592 48.1044 3.92373 47.0708C3.32153 46.0372 3.00288 44.8629 3 43.6667V9.77778C3 6.05 6.05 3 9.77778 3H43.6667C46.2083 3 47.591 4.30472 48.75 6.38889" stroke="#EFEFEF" stroke-width="6" stroke-linecap="round" stroke-linejoin="round"/>
</svg>
