<svg width="64" height="64" viewBox="0 0 64 64" fill="none" xmlns="http://www.w3.org/2000/svg">
<path d="M37.3333 8V18.6667C37.3333 19.3739 37.6143 20.0522 38.1144 20.5523C38.6145 21.0524 39.2928 21.3333 40 21.3333H50.6667" stroke="black" stroke-width="4" stroke-linecap="round" stroke-linejoin="round"/>
<path d="M45.3333 56H18.6667C17.2522 56 15.8956 55.4381 14.8954 54.4379C13.8952 53.4377 13.3333 52.0812 13.3333 50.6667V13.3333C13.3333 11.9188 13.8952 10.5623 14.8954 9.5621C15.8956 8.5619 17.2522 8 18.6667 8H37.3333L50.6667 21.3333V50.6667C50.6667 52.0812 50.1048 53.4377 49.1046 54.4379C48.1044 55.4381 46.7478 56 45.3333 56Z" stroke="black" stroke-width="4" stroke-linecap="round" stroke-linejoin="round"/>
<path d="M29.3333 33.3333C29.3333 32.2725 28.9119 31.255 28.1618 30.5049C27.4116 29.7548 26.3942 29.3333 25.3333 29.3333C24.2725 29.3333 23.2551 29.7548 22.5049 30.5049C21.7548 31.255 21.3333 32.2725 21.3333 33.3333V41.3333C21.3333 42.3942 21.7548 43.4116 22.5049 44.1618C23.2551 44.9119 24.2725 45.3333 25.3333 45.3333C26.3942 45.3333 27.4116 44.9119 28.1618 44.1618C28.9119 43.4116 29.3333 42.3942 29.3333 41.3333M34.6667 29.3333L38.6667 45.3333L42.6667 29.3333" stroke="black" stroke-width="4" stroke-linecap="round" stroke-linejoin="round"/>
</svg>
