<svg width="33" height="33" viewBox="0 0 33 33" fill="none" xmlns="http://www.w3.org/2000/svg">
<path d="M8.25 6.1875C7.70299 6.1875 7.17839 6.4048 6.79159 6.79159C6.4048 7.17839 6.1875 7.70299 6.1875 8.25V24.75C6.1875 25.297 6.4048 25.8216 6.79159 26.2084C7.17839 26.5952 7.70299 26.8125 8.25 26.8125H24.75C25.297 26.8125 25.8216 26.5952 26.2084 26.2084C26.5952 25.8216 26.8125 25.297 26.8125 24.75V23.7188C26.8125 22.8982 27.1384 22.1113 27.7186 21.5311C28.2988 20.9509 29.0857 20.625 29.9062 20.625C30.7268 20.625 31.5137 20.9509 32.0939 21.5311C32.674 22.1113 33 22.8982 33 23.7188V24.75C33 26.938 32.1308 29.0365 30.5836 30.5836C29.0365 32.1308 26.938 33 24.75 33H8.25C6.06196 33 3.96354 32.1308 2.41637 30.5836C0.869194 29.0365 0 26.938 0 24.75V8.25C0 6.06196 0.869194 3.96354 2.41637 2.41637C3.96354 0.869194 6.06196 0 8.25 0H9.28125C10.1018 1.7291e-08 10.8887 0.325947 11.4689 0.906138C12.0491 1.48633 12.375 2.27324 12.375 3.09375C12.375 3.91426 12.0491 4.70117 11.4689 5.28136C10.8887 5.86155 10.1018 6.1875 9.28125 6.1875H8.25ZM19.5938 6.1875C18.7732 6.1875 17.9863 5.86155 17.4061 5.28136C16.8259 4.70117 16.5 3.91426 16.5 3.09375C16.5 2.27324 16.8259 1.48633 17.4061 0.906138C17.9863 0.325947 18.7732 1.7291e-08 19.5938 0H29.9062C30.7268 0 31.5137 0.325947 32.0939 0.906138C32.674 1.48633 33 2.27324 33 3.09375V13.4062C33 14.2268 32.674 15.0137 32.0939 15.5939C31.5137 16.1741 30.7268 16.5 29.9062 16.5C29.0857 16.5 28.2988 16.1741 27.7186 15.5939C27.1384 15.0137 26.8125 14.2268 26.8125 13.4062V10.56L21.78 15.5925C21.1935 16.139 20.4178 16.4365 19.6163 16.4223C18.8149 16.4082 18.0501 16.0835 17.4833 15.5167C16.9165 14.9499 16.5918 14.1851 16.5777 13.3837C16.5635 12.5822 16.861 11.8065 17.4075 11.22L22.44 6.1875H19.5938Z" fill="#303030"/>
</svg>
