<svg width="60" height="61" viewBox="0 0 60 61" fill="none" xmlns="http://www.w3.org/2000/svg">
<path d="M24.9531 23.7771C24.7094 23.7834 24.4798 23.7075 24.2648 23.5698L22.0615 22.0094C21.7306 21.7928 21.891 21.7067 21.9874 21.6633C22.4214 21.4677 22.5016 21.4247 22.9481 21.0854C22.9958 21.0432 23.0613 21.062 23.1111 21.1016L24.8011 22.3068C24.8672 22.346 24.9484 22.3439 24.9961 22.3017L31.3571 17.4065C31.421 17.3639 31.4514 17.2812 31.4487 17.1789L31.2035 7.7458C31.2009 7.64349 31.1662 7.56249 31.1002 7.52326L24.494 2.98549C24.4279 2.94625 24.3467 2.94837 24.299 2.99056L17.9375 7.86547C17.8736 7.90808 17.8437 8.01123 17.8458 8.09308L18.091 17.5261C18.0932 17.6079 18.1283 17.7094 18.1944 17.7486L19.9992 18.9916C20.9739 19.5805 21.5565 18.8488 21.5379 18.1326L21.2959 8.82232C21.2927 8.69956 21.3708 8.57468 21.4846 8.57172L22.3133 8.55018C22.4108 8.54764 22.511 8.64742 22.5147 8.79064L22.7567 18.1009C22.7987 19.7174 22.1244 20.6768 20.9056 20.7084C20.5319 20.7182 20.2394 20.7258 19.3974 20.2358L17.6592 19.0524C17.2287 18.7564 16.9538 18.1903 16.9378 17.5764L16.6927 8.14353C16.6767 7.52969 16.9218 6.95002 17.3363 6.63204L23.6973 1.73682C24.0961 1.43981 24.6486 1.42544 25.0623 1.70134L31.669 6.2595C32.0994 6.55543 32.3743 7.12159 32.3903 7.7355L32.6355 17.1685C32.6514 17.7823 32.4063 18.362 31.9918 18.6799L25.6308 23.5753C25.4228 23.7035 25.1806 23.7713 24.9531 23.7772M26.7833 17.2387C23.9395 17.3126 23.312 15.6909 23.2758 14.2995C23.2726 14.1767 23.3507 14.0519 23.4644 14.0489L24.3094 14.0269C24.4069 14.0244 24.4903 14.1041 24.4935 14.2269C24.6517 15.308 25.0393 15.8303 26.7618 15.7855C28.1268 15.7501 28.7017 15.3461 28.6778 14.4253C28.664 13.8933 28.4914 13.5087 26.3556 13.298C24.5785 13.119 23.4607 12.6566 23.4145 10.8765C23.3714 9.21898 24.4508 8.20812 26.3034 8.15997C28.3834 8.1059 29.4306 8.97959 29.6116 10.9406C29.6132 11.0019 29.5986 11.0637 29.5677 11.126C29.5362 11.1677 29.4885 11.2099 29.4398 11.2112L28.5948 11.2332C28.5135 11.2353 28.4302 11.1555 28.4112 11.0537C28.187 9.93336 27.6737 9.57816 26.3412 9.61279C24.8462 9.65165 24.6844 10.3111 24.6972 10.8021C24.7126 11.3956 24.9286 11.5742 26.9521 11.8492C28.9595 12.1246 29.9142 12.5708 29.9599 14.3305C29.9905 16.1316 28.8471 17.1851 26.7833 17.2387Z" fill="#539E43"/>
<g clip-path="url(#clip0_88_22)">
<path d="M1.79529 32.208L15.7215 31.846L16.178 49.41L2.25183 49.772L1.79529 32.208Z" fill="#F5DE19"/>
<path d="M11.5068 45.6867C11.6334 45.9876 11.8244 46.2383 12.0578 46.41C12.2912 46.5816 12.5575 46.6671 12.8261 46.6568C13.3682 46.6427 13.706 46.2918 13.6937 45.8182C13.679 45.2536 13.3176 45.0609 12.7122 44.7471L12.3804 44.5787C11.4222 44.0958 10.779 43.4766 10.7441 42.133C10.7119 40.8954 11.4334 39.9332 12.6037 39.9027C12.9817 39.8584 13.363 39.9555 13.7001 40.1819C14.0371 40.4084 14.3151 40.7541 14.4992 41.1761L13.4976 42.0275C13.4255 41.8178 13.3047 41.6399 13.1514 41.5175C12.9981 41.395 12.8194 41.3337 12.6391 41.3418C12.5602 41.3339 12.481 41.3468 12.4066 41.3797C12.3322 41.4126 12.2643 41.4648 12.2071 41.5329C12.1499 41.601 12.1047 41.6835 12.0745 41.7752C12.0442 41.867 12.0295 41.9659 12.0314 42.0656C12.0442 42.5606 12.2927 42.755 12.8622 43.0484L13.194 43.2168C14.3218 43.7894 14.9664 44.3859 15.0022 45.7641C15.0408 47.2501 14.1364 48.0884 12.8935 48.1207C12.4102 48.1722 11.9237 48.0461 11.4928 47.7576C11.0618 47.469 10.7048 47.0304 10.4648 46.4947L11.5068 45.6867ZM6.88756 45.9499C7.10492 46.4044 7.30204 46.7884 7.75166 46.7767C8.18138 46.7656 8.44743 46.5465 8.42599 45.7216L8.28011 40.1093L9.58867 40.0753L9.73512 45.7095C9.77954 47.4183 9.00397 48.2168 7.84561 48.2469C7.43689 48.2858 7.0269 48.1676 6.66954 47.9081C6.31218 47.6485 6.02417 47.2595 5.84339 46.7924L6.88756 45.9499Z" fill="black"/>
</g>
<g clip-path="url(#clip1_88_22)">
<path d="M41.294 40.7093C42.1124 40.688 42.7541 39.834 42.7273 38.8018C42.7005 37.7696 42.0153 36.9501 41.1968 36.9714C40.3784 36.9926 39.7367 37.8467 39.7635 38.8789C39.7904 39.9111 40.4756 40.7306 41.294 40.7093Z" fill="#00D8FF"/>
<path d="M41.3569 43.1256C39.5771 43.2262 37.7926 42.9696 36.0699 42.3653C35.2738 42.0707 34.5259 41.5935 33.8642 40.9578C33.6124 40.7413 33.4 40.4593 33.2417 40.131C33.0834 39.8028 32.9829 39.4361 32.947 39.0561C32.9149 37.8203 33.9598 36.5813 35.7424 35.742C37.4755 34.9943 39.2966 34.6064 41.1351 34.5934C42.9473 34.5143 44.7614 34.8015 46.5086 35.4442C47.2754 35.7296 47.9977 36.1834 48.642 36.7846C48.8893 36.9909 49.0984 37.2626 49.2542 37.5806C49.4101 37.8985 49.509 38.255 49.544 38.6247C49.5773 39.909 48.4079 41.2419 46.4906 42.1011C44.8342 42.7721 43.1028 43.1176 41.3569 43.1256ZM41.1583 35.4875C39.3995 35.5035 37.6574 35.8725 35.9973 36.5807C34.3566 37.3542 33.6386 38.3723 33.6559 39.0354C33.6739 39.7292 34.5019 40.7991 36.2773 41.5108C37.9252 42.0858 39.6318 42.329 41.3336 42.2314C43.004 42.2257 44.6608 41.8976 46.2463 41.2584C48.0492 40.4492 48.8507 39.3354 48.8327 38.6432C48.7966 38.4064 48.722 38.181 48.6137 37.9813C48.5054 37.7816 48.3657 37.6118 48.2034 37.4828C47.6271 36.9495 46.982 36.5474 46.2976 36.295C44.6262 35.6829 42.8913 35.4103 41.1583 35.4875Z" fill="#00D8FF"/>
<path d="M38.1209 48.2495C37.8446 48.2647 37.5692 48.1871 37.3226 48.0248C36.4578 47.4294 36.1175 45.6563 36.4122 43.2809C36.7462 41.0063 37.3703 38.8193 38.2606 36.8045C39.0923 34.7848 40.1766 32.9499 41.4724 31.3692C42.0435 30.6771 42.7086 30.1196 43.4368 29.7224C43.6996 29.5577 43.9887 29.4684 44.2835 29.4607C44.5783 29.453 44.8717 29.5273 45.1427 29.6781C46.042 30.2966 46.3853 32.2537 46.0389 34.786C45.6896 36.938 45.08 39.0058 44.2314 40.9172C43.4301 42.9125 42.381 44.7308 41.1233 46.3042C40.5315 47.0234 39.8379 47.5966 39.0776 47.9949C38.773 48.1473 38.4496 48.2333 38.1209 48.2495ZM38.8862 37.2326C38.0372 39.1618 37.4388 41.2529 37.1136 43.4273C36.8424 45.615 37.1912 46.9173 37.6575 47.2389C38.1407 47.5727 39.2833 47.2146 40.641 45.6382C41.8415 44.131 42.8427 42.3905 43.6073 40.4816C44.4204 38.6542 45.0054 36.6772 45.3417 34.6193C45.6677 32.2357 45.295 30.791 44.8107 30.458C44.6303 30.3765 44.4389 30.343 44.2486 30.3594C44.0583 30.3758 43.8732 30.4418 43.7051 30.5533C43.0571 30.9123 42.4657 31.4134 41.9582 32.0336C40.7203 33.5476 39.6847 35.3042 38.8905 37.237L38.8862 37.2326Z" fill="#00D8FF"/>
<path d="M44.853 48.0843C44.0498 48.1052 43.0138 47.5187 41.9216 46.3942C40.5217 44.8696 39.3239 43.0725 38.3745 41.0725C37.3933 39.1338 36.6625 37.0134 36.2099 34.7917C36.0133 33.8142 35.9553 32.8025 36.0386 31.8038C36.0542 31.4337 36.1341 31.0734 36.2726 30.7483C36.4111 30.4232 36.6049 30.1413 36.8402 29.9224C37.7049 29.2558 39.2176 29.8786 40.7884 31.5479C42.0965 33.0267 43.2194 34.7469 44.118 36.6486C45.0975 38.5415 45.8341 40.6149 46.3003 42.7913C46.5053 43.8047 46.5601 44.8548 46.4621 45.8887C46.4423 46.2696 46.3573 46.6395 46.213 46.9732C46.0688 47.3068 45.8686 47.5963 45.6262 47.8218C45.3923 47.9945 45.1255 48.0851 44.853 48.0843ZM38.9763 40.6065C39.8869 42.5177 41.0312 44.2377 42.3663 45.7019C43.737 47.1139 44.8025 47.3974 45.2484 47.0484C45.7136 46.6884 46.0264 45.2604 45.6064 42.974C45.1572 40.8962 44.451 38.9171 43.5138 37.1102C42.6561 35.29 41.5841 33.6427 40.335 32.2255C38.8564 30.654 37.6817 30.3247 37.2159 30.6839C37.0719 30.8395 36.9554 31.0313 36.8737 31.2475C36.792 31.4636 36.747 31.6993 36.7414 31.9396C36.6703 32.8303 36.7244 33.7317 36.9014 34.6024C37.3364 36.727 38.0371 38.7544 38.9769 40.608L38.9763 40.6065Z" fill="#00D8FF"/>
</g>
<g filter="url(#filter0_d_88_22)">
<g filter="url(#filter1_b_88_22)">
<rect x="0.19751" y="4.7998" width="47.9459" height="44.8526" rx="10" fill="white" fill-opacity="0.2"/>
<rect x="1.09751" y="5.6998" width="46.1459" height="43.0526" rx="9.1" stroke="#EFEFEF" stroke-width="1.8"/>
</g>
<path d="M42.4742 44.107L42.1638 43.7209L40.8764 42.1197C40.7966 42.1479 40.7146 42.1717 40.6307 42.1913C40.3862 42.2483 40.1353 42.2606 39.8811 42.2318C39.2556 42.1609 38.732 41.8786 38.3408 41.3918C37.9496 40.9049 37.7875 40.3341 37.858 39.7105L37.858 39.7103C37.9287 39.0865 38.2144 38.5662 38.705 38.1794C39.1952 37.7928 39.7685 37.6348 40.3937 37.7054L40.3939 37.7054C41.0194 37.7763 41.543 38.0586 41.9343 38.5453C42.3258 39.0323 42.4879 39.6032 42.417 40.2269L42.4742 44.107ZM42.4742 44.107L42.8631 43.8001M42.4742 44.107L42.8631 43.8001M42.8631 43.8001L43.2902 43.4632L43.6864 43.1506M42.8631 43.8001L43.6864 43.1506M43.6864 43.1506L43.3702 42.7573M43.6864 43.1506L43.3702 42.7573M43.3702 42.7573L42.0867 41.161C42.1308 41.0921 42.1713 41.0203 42.2082 40.9457C42.3196 40.7213 42.3882 40.4804 42.417 40.2271L43.3702 42.7573ZM40.0552 40.6947L40.055 40.6946C39.8413 40.6705 39.6841 40.5833 39.5549 40.4226C39.4259 40.2621 39.3766 40.093 39.4001 39.8851C39.4238 39.6774 39.5098 39.5235 39.6714 39.3959C39.833 39.2683 40.0057 39.2183 40.2195 39.2425C40.4339 39.2669 40.5913 39.3545 40.7203 39.5149C40.8491 39.6751 40.8984 39.8441 40.8748 40.0521L40.8748 40.0524C40.8513 40.2605 40.7655 40.4141 40.6041 40.5414C40.4423 40.6689 40.2693 40.7189 40.0552 40.6947Z" stroke="#303030"/>
</g>
<path d="M34.1246 18.6511V23.0351H24.9726V27.7711H31.8206V32.0271H24.9726V41.1151H19.5006V18.6511H34.1246Z" fill="#23D192"/>
<defs>
<filter id="filter0_d_88_22" x="0.19751" y="4.7998" width="58.9459" height="55.8527" filterUnits="userSpaceOnUse" color-interpolation-filters="sRGB">
<feFlood flood-opacity="0" result="BackgroundImageFix"/>
<feColorMatrix in="SourceAlpha" type="matrix" values="0 0 0 0 0 0 0 0 0 0 0 0 0 0 0 0 0 0 127 0" result="hardAlpha"/>
<feOffset dx="6" dy="6"/>
<feGaussianBlur stdDeviation="2.5"/>
<feComposite in2="hardAlpha" operator="out"/>
<feColorMatrix type="matrix" values="0 0 0 0 0 0 0 0 0 0 0 0 0 0 0 0 0 0 0.25 0"/>
<feBlend mode="normal" in2="BackgroundImageFix" result="effect1_dropShadow_88_22"/>
<feBlend mode="normal" in="SourceGraphic" in2="effect1_dropShadow_88_22" result="shape"/>
</filter>
<filter id="filter1_b_88_22" x="-9.80249" y="-5.2002" width="67.9459" height="64.8527" filterUnits="userSpaceOnUse" color-interpolation-filters="sRGB">
<feFlood flood-opacity="0" result="BackgroundImageFix"/>
<feGaussianBlur in="BackgroundImageFix" stdDeviation="5"/>
<feComposite in2="SourceAlpha" operator="in" result="effect1_backgroundBlur_88_22"/>
<feBlend mode="normal" in="SourceGraphic" in2="effect1_backgroundBlur_88_22" result="shape"/>
</filter>
<clipPath id="clip0_88_22">
<rect width="15.921" height="20.0799" fill="white" transform="translate(0.767944 30.9792) rotate(-1.48894)"/>
</clipPath>
<clipPath id="clip1_88_22">
<rect width="18.9744" height="23.9309" fill="white" transform="translate(31.451 27.1449) rotate(-1.48894)"/>
</clipPath>
</defs>
</svg>
